<?xml version="1.0" encoding="UTF-8" standalone="no"?>
<!-- Created with Inkscape (http://www.inkscape.org/) -->

<svg
   xmlns:dc="http://purl.org/dc/elements/1.1/"
   xmlns:cc="http://creativecommons.org/ns#"
   xmlns:rdf="http://www.w3.org/1999/02/22-rdf-syntax-ns#"
   xmlns:svg="http://www.w3.org/2000/svg"
   xmlns="http://www.w3.org/2000/svg"
   xmlns:sodipodi="http://sodipodi.sourceforge.net/DTD/sodipodi-0.dtd"
   xmlns:inkscape="http://www.inkscape.org/namespaces/inkscape"
   width="540.71387"
   height="236.24289"
   id="svg7059"
   version="1.1"
   inkscape:version="0.48.5 r10040"
   sodipodi:docname="Documento nuevo 1">
  <defs
     id="defs7061">
    <filter
       color-interpolation-filters="sRGB"
       inkscape:collect="always"
       id="filter6857">
      <feGaussianBlur
         inkscape:collect="always"
         stdDeviation="1.0468148"
         id="feGaussianBlur6859" />
    </filter>
    <filter
       inkscape:collect="always"
       id="filter5117"
       color-interpolation-filters="sRGB">
      <feGaussianBlur
         inkscape:collect="always"
         stdDeviation="1.7236605"
         id="feGaussianBlur5119" />
    </filter>
    <filter
       color-interpolation-filters="sRGB"
       inkscape:collect="always"
       id="filter14506-80-6-8">
      <feGaussianBlur
         inkscape:collect="always"
         stdDeviation="0.70957443"
         id="feGaussianBlur14508-15-9-27" />
    </filter>
    <filter
       color-interpolation-filters="sRGB"
       inkscape:collect="always"
       id="filter14506-80-6-66">
      <feGaussianBlur
         inkscape:collect="always"
         stdDeviation="0.70957443"
         id="feGaussianBlur14508-15-9-6" />
    </filter>
    <filter
       color-interpolation-filters="sRGB"
       inkscape:collect="always"
       id="filter14506-80-6-67">
      <feGaussianBlur
         inkscape:collect="always"
         stdDeviation="0.70957443"
         id="feGaussianBlur14508-15-9-14" />
    </filter>
    <filter
       color-interpolation-filters="sRGB"
       inkscape:collect="always"
       id="filter14506-80-6-2">
      <feGaussianBlur
         inkscape:collect="always"
         stdDeviation="0.70957443"
         id="feGaussianBlur14508-15-9-3" />
    </filter>
    <filter
       color-interpolation-filters="sRGB"
       inkscape:collect="always"
       id="filter14506-80-6-1">
      <feGaussianBlur
         inkscape:collect="always"
         stdDeviation="0.70957443"
         id="feGaussianBlur14508-15-9-5" />
    </filter>
    <filter
       color-interpolation-filters="sRGB"
       inkscape:collect="always"
       id="filter14506-80-6-121">
      <feGaussianBlur
         inkscape:collect="always"
         stdDeviation="0.70957443"
         id="feGaussianBlur14508-15-9-4" />
    </filter>
    <filter
       color-interpolation-filters="sRGB"
       inkscape:collect="always"
       id="filter14506-80-6-82">
      <feGaussianBlur
         inkscape:collect="always"
         stdDeviation="0.70957443"
         id="feGaussianBlur14508-15-9-45" />
    </filter>
  </defs>
  <sodipodi:namedview
     id="base"
     pagecolor="#ffffff"
     bordercolor="#666666"
     borderopacity="1.0"
     inkscape:pageopacity="0.0"
     inkscape:pageshadow="2"
     inkscape:zoom="0.35"
     inkscape:cx="260.35764"
     inkscape:cy="89.560339"
     inkscape:document-units="px"
     inkscape:current-layer="layer1"
     showgrid="false"
     fit-margin-top="0"
     fit-margin-left="0"
     fit-margin-right="0"
     fit-margin-bottom="0"
     inkscape:window-width="503"
     inkscape:window-height="467"
     inkscape:window-x="422"
     inkscape:window-y="128"
     inkscape:window-maximized="0" />
  <metadata
     id="metadata7064">
    <rdf:RDF>
      <cc:Work
         rdf:about="">
        <dc:format>image/svg+xml</dc:format>
        <dc:type
           rdf:resource="http://purl.org/dc/dcmitype/StillImage" />
        <dc:title></dc:title>
      </cc:Work>
    </rdf:RDF>
  </metadata>
  <g
     inkscape:label="Capa 1"
     inkscape:groupmode="layer"
     id="layer1"
     transform="translate(-89.642361,-271.39392)">
    <text
       inkscape:export-ydpi="90"
       inkscape:export-xdpi="90"
       inkscape:export-filename="/home/gustavo/Imágenes/lisol2017_afiche2.png"
       transform="matrix(0.67568461,0,0,0.81093297,-154.58348,-292.08648)"
       sodipodi:linespacing="125%"
       id="text3741"
       y="976.25708"
       x="375.71692"
       style="font-size:147.063797px;font-style:normal;font-weight:normal;line-height:125%;letter-spacing:0px;word-spacing:0px;fill:#333333;fill-opacity:1;stroke:none;filter:url(#filter6857);font-family:Sans"
       xml:space="preserve"><tspan
         style="font-style:normal;font-variant:normal;font-weight:normal;font-stretch:normal;fill:#333333;font-family:Southern Aire Personal Use Only;-inkscape-font-specification:Southern Aire Personal Use Only"
         y="976.25708"
         x="375.71692"
         id="tspan3743"
         sodipodi:role="line">Cumaná</tspan></text>
    <g
       inkscape:export-ydpi="90"
       inkscape:export-xdpi="90"
       inkscape:export-filename="/home/gustavo/Imágenes/lisol2017_afiche2.png"
       id="g3745"
       style="stroke:#333333;filter:url(#filter5117)"
       transform="matrix(1.0893428,0,0,1.0893428,-94.88628,198.69345)">
      <path
         inkscape:connector-curvature="0"
         style="color:#000000;fill:none;stroke:#333333;stroke-width:3.62299991;stroke-linecap:round;stroke-linejoin:round;stroke-miterlimit:4;stroke-opacity:1;stroke-dasharray:none;marker:none;visibility:visible;display:inline;overflow:visible;enable-background:accumulate"
         d="m 594.2979,72.672043 c -1.35977,0.012 -2.71643,0.49513 -3.93987,1.56237 l -23.00521,26.424297 c -2.30364,2.45821 -2.87054,5.17242 -0.58872,8.28732 8.74004,9.99121 18.43135,17.27656 18.43135,17.27656 1.7265,1.19041 3.49496,0.8728 5.29844,-0.56608 l 11.61583,-12.02339 c 1.96583,-2.308 1.38853,-4.27668 -0.40758,-6.06831 l -12.45361,-11.932827 -1.20007,1.20007 10.64217,14.038627 -11.07239,11.54789 -16.12177,-16.55198 23.48072,-24.794017 27.42059,29.662247 -26.46958,26.65073 c -9.24558,-9.36137 -21.90212,-15.34002 -35.95698,-15.91798 l -1.65293,-47.278447 c 0,0 -16.34531,-4.69464 -17.45771,2.67187 -1.1125,7.3665 11.68376,4.77765 11.68376,4.77765 l 3.57758,39.828927 c -9.69127,0.28582 -18.74698,3.11505 -26.49223,7.87974 l -29.75281,-28.46217 c -2.89344,-3.215647 -9.58199,-3.418407 -12.45362,-0.0906 l -30.38681,32.40204 c -2.54972,2.60996 -3.05076,6.12489 -0.61136,8.92131 l 26.40166,23.00522 c 2.4583,2.30364 5.17241,2.87054 8.28731,0.58872 9.99132,-8.74004 17.27656,-18.43135 17.27656,-18.43135 1.19041,-1.7265 0.8727,-3.49496 -0.56607,-5.29844 l -12.0234,-11.61583 c -2.3081,-1.96583 -4.27657,-1.36588 -6.06831,0.43022 l -11.93282,12.43097 1.20007,1.22272 14.03862,-10.66483 11.5479,11.0724 -16.55199,16.12177 -24.79401,-23.48072 29.66224,-27.4206 27.03566,26.87717 c -5.5523,5.49997 -9.8947,12.21591 -12.63475,19.69935 -0.30113,0.82242 -0.59895,1.65003 -0.86043,2.49072 -1.32242,4.25169 -2.1109,8.7273 -2.33223,13.35933 l -47.7313,1.65293 c 0,0 -4.71728,16.34531 2.64923,17.4577 7.3665,1.11251 4.77765,-11.68375 4.77765,-11.68375 l 40.25914,-3.57758 c 0.21967,9.61797 2.94683,18.62678 7.58538,26.35637 l -28.59802,29.91132 c -3.21576,2.89333 -3.41842,9.55934 -0.0906,12.43097 l 32.40203,30.38681 c 2.60997,2.54972 6.12501,3.0734 8.92132,0.634 l 23.00522,-26.4243 c 2.30363,-2.4583 2.87053,-5.17241 0.58871,-8.28731 -8.74004,-9.99132 -18.43134,-17.27656 -18.43134,-17.27656 -1.72651,-1.19041 -3.49487,-0.8727 -5.29845,0.56607 l -11.61582,12.0234 c -1.96574,2.3081 -1.36589,4.27657 0.43021,6.06831 l 12.43097,11.93282 1.22272,-1.20007 -10.66482,-14.01598 11.07239,-11.57054 16.12177,16.55199 -23.48072,24.79401 -27.42059,-29.66224 26.92244,-27.10359 c 9.09825,9.39027 21.59196,15.47596 35.50412,16.25762 l 1.65294,47.39166 c 0,0 16.3453,4.69464 17.4577,-2.67187 1.1125,-7.3665 -11.68376,-4.77766 -11.68376,-4.77766 l -3.55494,-39.8742 c 0.65094,-0.01 1.30217,-0.0126 1.9473,-0.0453 9.03081,-0.45777 17.48074,-3.16025 24.79401,-7.54009 l 29.50374,28.21309 c 2.89344,3.21576 9.55934,3.41842 12.43097,0.0906 l 30.38681,-32.40203 c 2.54972,-2.60997 3.07341,-6.1249 0.63401,-8.92132 l -26.42428,-23.00521 c -2.4582,-2.30364 -5.17241,-2.87054 -8.28731,-0.58871 -9.99121,8.74004 -17.27656,18.43134 -17.27656,18.43134 -1.19041,1.72651 -0.85015,3.49487 0.58872,5.29845 l 12.00075,11.61582 c 2.308,1.96584 4.27668,1.36589 6.06831,-0.43021 l 11.93283,-12.43097 -1.20008,-1.20008 -14.01598,10.64218 -11.57053,-11.07239 16.55198,-16.12177 24.79401,23.48072 -29.66224,27.42059 -26.69602,-26.51487 c 9.49634,-9.18098 15.60679,-21.83246 16.30291,-35.91169 l 46.9388,-1.65294 c 0,0 4.69464,-16.3453 -2.67186,-17.4577 -7.36651,-1.1125 -4.77766,11.68375 -4.77766,11.68375 l -39.44399,3.5323 c -0.0114,-0.52132 -0.0191,-1.04481 -0.0453,-1.56236 -0.46833,-9.23913 -3.27407,-17.86377 -7.83445,-25.29216 L 631.5908,117.6862 c 3.21566,-2.89344 3.44106,-9.55935 0.11322,-12.43097 L 599.27934,74.868413 c -1.46804,-1.43422 -3.23316,-2.21173 -4.98145,-2.19637 z m -55.61104,18.70307 c -2.2469,-0.0147 -4.12268,0.85393 -4.89087,2.49072 -1.2291,2.61886 0.87497,6.215847 4.70973,8.015597 3.83476,1.79976 7.94128,1.12443 9.17039,-1.49443 1.2291,-2.618857 -0.89761,-6.193207 -4.73238,-7.992957 -1.43803,-0.67491 -2.90873,-1.01012 -4.25687,-1.01893 z m 5.59281,14.242407 c -2.24691,-0.0147 -4.14533,0.87657 -4.91352,2.51336 -1.2291,2.61887 0.89761,6.1932 4.73237,7.99296 3.83477,1.79975 7.91865,1.12443 9.14775,-1.49444 1.2291,-2.61886 -0.87497,-6.1932 -4.70973,-7.99295 -1.43803,-0.67491 -2.90873,-1.01012 -4.25687,-1.01893 z m 92.76809,45.64815 c -2.34286,-0.0268 -4.96829,1.95627 -6.43059,5.07202 -1.79976,3.83476 -1.14707,7.94128 1.47179,9.17038 2.61886,1.22911 6.1932,-0.89761 7.99295,-4.73237 1.79976,-3.83476 1.14708,-7.94129 -1.47179,-9.17039 -0.49103,-0.23046 -1.0217,-0.33345 -1.56236,-0.33964 z m -14.2424,5.5928 c -2.34286,-0.0268 -4.99094,1.93363 -6.45324,5.04938 -1.79975,3.83476 -1.12443,7.94128 1.49443,9.17038 2.61887,1.22911 6.19321,-0.87496 7.99296,-4.70973 1.79975,-3.83476 1.14707,-7.94128 -1.47179,-9.17038 -0.49104,-0.23046 -1.0217,-0.33346 -1.56236,-0.33965 z M 495.25772,178.8674 c -2.34286,-0.0268 -4.99094,1.95627 -6.45324,5.07202 -1.79975,3.83476 -1.12443,7.94129 1.49444,9.17039 2.61886,1.2291 6.1932,-0.87497 7.99295,-4.70973 1.79976,-3.83477 1.14707,-7.94129 -1.47179,-9.17039 -0.49104,-0.23046 -1.0217,-0.3561 -1.56236,-0.36229 z m -14.26505,5.59281 c -2.34286,-0.0268 -4.96829,1.95627 -6.43059,5.07201 -1.79976,3.83477 -1.14708,7.94129 1.47179,9.17039 2.61886,1.2291 6.21584,-0.89761 8.0156,-4.73237 1.79975,-3.83476 1.12443,-7.94129 -1.49444,-9.17039 -0.49103,-0.23046 -1.0217,-0.33345 -1.56236,-0.33964 z m 85.29593,48.70495 c -2.24691,-0.0147 -4.12269,0.87657 -4.89088,2.51336 -1.2291,2.61886 0.87497,6.1932 4.70973,7.99296 3.83477,1.79975 7.94129,1.12443 9.17039,-1.49444 1.2291,-2.61886 -0.87496,-6.1932 -4.70973,-7.99295 -1.43803,-0.67491 -2.93137,-1.01012 -4.27951,-1.01893 z m 5.5928,14.26504 c -2.2469,-0.0147 -4.14533,0.85394 -4.91351,2.49073 -1.22911,2.61886 0.8976,6.1932 4.73237,7.99295 3.83476,1.79976 7.94128,1.14707 9.17039,-1.47179 1.2291,-2.61886 -0.89761,-6.1932 -4.73238,-7.99295 -1.43803,-0.67491 -2.90873,-1.01013 -4.25687,-1.01894 z"
         id="path3747" />
      <path
         transform="matrix(0.91980194,0,0,0.91980194,1811.8097,1269.6303)"
         inkscape:connector-curvature="0"
         id="path3749"
         d="m -1412.5395,-1158.7811 -32.5646,33.7015 c 0,0 -0.7309,1.2993 -0.8121,2.9235 -0.081,1.6242 0.3248,3.0859 0.3248,3.0859 0,0 0.8121,-4.2228 2.2739,-5.847 1.4617,-1.6241 31.9149,-32.3209 31.9149,-32.3209 z"
         style="opacity:0.56734691;color:#000000;fill:#ffffff;fill-opacity:1;fill-rule:nonzero;stroke:#333333;stroke-width:1px;marker:none;visibility:visible;display:inline;overflow:visible;filter:url(#filter14506-80-6-8);enable-background:accumulate" />
      <path
         transform="matrix(0.91980194,0,0,0.91980194,1811.8097,1269.6303)"
         sodipodi:nodetypes="ccccszc"
         inkscape:connector-curvature="0"
         id="path3751"
         d="m -1310.3633,-1159.0501 19.5178,-19.7407 c 1.7149,-1.5693 3.5719,-1.7264 5.7995,-0.3346 l 30.2246,26.5441 c 0,0 -26.0853,-21.6601 -31.3597,-25.6338 -0.4902,-0.3692 -1.85,-0.4434 -2.8022,0.032 -0.9523,0.4758 -21.38,19.1325 -21.38,19.1325 z"
         style="opacity:0.56734691;color:#000000;fill:#ffffff;fill-opacity:1;fill-rule:nonzero;stroke:#333333;stroke-width:1px;marker:none;visibility:visible;display:inline;overflow:visible;filter:url(#filter14506-80-6-66);enable-background:accumulate" />
      <path
         transform="matrix(0.91980194,0,0,0.91980194,1811.8097,1269.6303)"
         inkscape:connector-curvature="0"
         id="path3753"
         d="m -1307.575,-1156.0388 13.3836,12.1568 13.0489,-9.8146 c 0,0 -12.4913,11.4875 -13.0489,11.376 -0.5577,-0.1115 -13.3836,-13.7182 -13.3836,-13.7182 z"
         style="opacity:0.56734691;color:#000000;fill:#ffffff;fill-opacity:1;fill-rule:nonzero;stroke:#333333;stroke-width:1px;marker:none;visibility:visible;display:inline;overflow:visible;filter:url(#filter14506-80-6-67);enable-background:accumulate" />
      <path
         transform="matrix(0.91980194,0,0,0.91980194,1811.8097,1269.6303)"
         inkscape:connector-curvature="0"
         id="path3755"
         d="m -1412.9456,-1121.9125 14.0491,-13.8054 c 0,0 0.9745,-0.7309 1.949,-0.7309 0.9745,0 2.1114,0.4061 2.1114,0.4061 l 19.0028,18.0282 c 0,0 1.2181,1.6242 1.4617,2.3551 0.2437,0.7309 -20.4645,-19.0028 -21.2766,-19.3276 -0.8121,-0.3249 -2.0302,-0.3249 -2.9235,0.3248 -0.8933,0.6497 -14.3739,12.7497 -14.3739,12.7497 z"
         style="opacity:0.56734691;color:#000000;fill:#ffffff;fill-opacity:1;fill-rule:nonzero;stroke:#333333;stroke-width:1px;marker:none;visibility:visible;display:inline;overflow:visible;filter:url(#filter14506-80-6-2);enable-background:accumulate" />
      <path
         transform="matrix(0.91980194,0,0,0.91980194,1811.8097,1269.6303)"
         inkscape:connector-curvature="0"
         id="path3757"
         d="m -1409.7784,-1119.5574 11.6128,14.7799 c 0,0 -11.8565,-13.4806 -11.9377,-13.8054 -0.081,-0.3248 0.3249,-0.9745 0.3249,-0.9745 z"
         style="opacity:0.56734691;color:#000000;fill:#ffffff;fill-opacity:1;fill-rule:nonzero;stroke:#333333;stroke-width:1px;marker:none;visibility:visible;display:inline;overflow:visible;filter:url(#filter14506-80-6-1);enable-background:accumulate" />
      <path
         transform="matrix(0.91980194,0,0,0.91980194,1811.8097,1269.6303)"
         inkscape:connector-curvature="0"
         id="path3759"
         d="m -1449.2,-1225.014 13.0012,-13.0879 c 0,0 1.2134,-0.8667 2.1669,-0.8667 0.9534,0 2.5135,0.9534 2.5135,0.9534 0,0 13.5213,12.8278 13.7813,13.7812 0.26,0.9535 0.26,2.1669 0.26,2.1669 0,0 -0.6067,-2.1669 -3.467,-4.6804 -2.8602,-2.5136 -11.6144,-10.661 -11.6144,-10.661 0,0 -0.8667,-0.52 -1.7335,-0.3467 -0.8667,0.1733 -14.908,12.7412 -14.908,12.7412 z"
         style="opacity:0.56734691;color:#000000;fill:#ffffff;fill-opacity:1;fill-rule:nonzero;stroke:#333333;stroke-width:1px;marker:none;visibility:visible;display:inline;overflow:visible;filter:url(#filter14506-80-6-121);enable-background:accumulate" />
      <path
         transform="matrix(0.91980194,0,0,0.91980194,1811.8097,1269.6303)"
         inkscape:connector-curvature="0"
         id="path3761"
         d="m -1466.9683,-1231.5146 c 0,0 -0.6067,0.78 -0.26,1.0401 0.3467,0.26 27.5625,26.3491 27.5625,26.3491 l 1.6468,-0.9535 c 0,0 -0.7801,1.4735 -1.3868,1.5602 -0.6067,0.087 -0.6934,0 -6.1539,-4.7671 -5.4605,-4.7671 -22.9688,-21.322 -22.6221,-22.1021 0.3467,-0.78 1.2135,-1.1267 1.2135,-1.1267 z"
         style="opacity:0.56734691;color:#000000;fill:#ffffff;fill-opacity:1;fill-rule:nonzero;stroke:#333333;stroke-width:1px;marker:none;visibility:visible;display:inline;overflow:visible;filter:url(#filter14506-80-6-82);enable-background:accumulate" />
      <path
         inkscape:connector-curvature="0"
         id="path3763"
         d="m 292.82054,119.15271 a 7.3591514,7.3591514 0 0 0 -7.27124,7.46602 l 0,97.18801 a 7.36863,7.36863 0 0 0 14.73726,0 l 0,-97.18801 a 7.3591514,7.3591514 0 0 0 -7.46602,-7.46602 z m -52.13224,0.35702 a 7.3591514,7.3591514 0 0 0 -7.27125,7.46612 l 0,75.86113 c 0,15.55247 12.75335,28.30592 28.30593,28.30592 l 13.11421,0 a 7.3591514,7.3591514 0 1 0 0,-14.70474 l -13.11421,0 c -7.65392,0 -13.60108,-5.94726 -13.60108,-13.60118 l 0,-75.86113 a 7.3591514,7.3591514 0 0 0 -7.4336,-7.46612 z m 193.82423,0 a 7.3591514,7.3591514 0 0 0 -7.23883,7.46612 l 0,75.86113 c 0,15.55247 12.72094,28.30592 28.27351,28.30592 l 13.11422,0 a 7.3591514,7.3591514 0 1 0 0,-14.70474 l -13.11422,0 c -7.65402,0 -13.56866,-5.94726 -13.56866,-13.60118 l 0,-75.86113 a 7.3591514,7.3591514 0 0 0 -7.46602,-7.46612 z m -224.92178,0.12984 c -15.55248,0 -28.30592,12.72095 -28.30592,28.27352 l 0,17.59382 a 7.3591514,7.3591514 0 0 0 0,14.44517 l 0,43.85466 a 7.3591514,7.3591514 0 1 0 14.7048,0 l 0,-43.69241 23.04725,0 a 7.36863,7.36863 0 0 0 0,-14.73726 l -23.04725,0 0,-17.46398 c 0,-7.65413 5.94708,-13.56866 13.60112,-13.56866 l 13.08176,0 a 7.3591514,7.3591514 0 1 0 0,-14.70486 l -13.08176,0 z m 118.19026,0.90891 -0.35712,0.0322 c 0,0 -5.98185,0.62076 -11.94562,4.31736 -5.96367,3.6966 -12.30264,11.48327 -12.30264,22.94982 0,10.57624 3.54619,18.56266 8.53717,23.95616 4.99099,5.3934 10.77288,8.41678 15.35407,11.45866 5.20362,3.45529 10.06819,6.30022 13.14663,9.2189 3.07854,2.91889 4.54452,5.21733 4.54452,9.86812 0,9.62931 -7.25909,14.80218 -12.46499,14.80218 -9.08594,0 -18.01576,-0.58419 -18.01576,-0.58419 a 6.8632598,6.8632598 0 0 0 -0.8765,13.69841 c 0,0 9.235,0.5844 18.89226,0.5844 13.5375,0 26.16351,-11.92475 26.16351,-28.5008 0,-8.45179 -3.96315,-15.25061 -8.79686,-19.83357 -4.83382,-4.58307 -10.34439,-7.59025 -14.99695,-10.6797 -5.27508,-3.50266 -9.92494,-6.14774 -12.88704,-9.34875 -2.96199,-3.2009 -4.90155,-6.78604 -4.90155,-14.63982 0,-6.96367 2.72786,-9.36558 5.84297,-11.2964 2.98578,-1.85074 5.82718,-2.2704 6.07014,-2.30468 l 18.14571,0 a 6.8564328,6.8564328 0 1 0 0,-13.69861 l -18.76242,0 -0.38953,0 z m 54.69661,27.59189 c -11.50529,0 -20.96976,9.49677 -20.96976,21.00217 l 0,40.99809 c 0,11.5054 9.46447,21.00227 20.96976,21.00227 l 19.37922,0 c 11.5053,0 21.00217,-9.49676 21.00217,-21.00227 l 0,-40.99809 c 0,-11.5054 -9.49687,-21.00217 -21.00217,-21.00217 l -19.37922,0 z m 0,14.70475 19.37922,0 c 3.60675,0 6.26491,2.69057 6.26491,6.29742 l 0,40.99809 c 0,3.60685 -2.65816,6.29753 -6.26491,6.29753 l -19.37922,0 c -3.60675,0 -6.26491,-2.69068 -6.26491,-6.29753 l 0,-40.99809 c 0,-3.60685 2.65816,-6.29742 6.26491,-6.29742 z"
         style="font-size:medium;font-style:normal;font-variant:normal;font-weight:normal;font-stretch:normal;text-indent:0;text-align:start;text-decoration:none;line-height:normal;letter-spacing:normal;word-spacing:normal;text-transform:none;direction:ltr;block-progression:tb;writing-mode:lr-tb;text-anchor:start;baseline-shift:baseline;color:#000000;fill:none;stroke:#333333;stroke-width:3.62299991;stroke-miterlimit:4;stroke-dasharray:none;marker:none;visibility:visible;display:inline;overflow:visible;enable-background:accumulate;font-family:Sans;-inkscape-font-specification:Sans" />
      <path
         sodipodi:nodetypes="cccccccccccccccccccssccccccccscccccccsccc"
         style="font-size:12px;fill:none;stroke:#333333;stroke-width:3.62299991;stroke-miterlimit:4;stroke-opacity:1;stroke-dasharray:none"
         d="m 531.77533,136.90463 c -0.72733,0.0301 -1.36865,0.21108 -1.85707,0.61214 -0.27049,2.61713 0.65202,5.97582 2.65037,7.81358 -0.17244,-0.22344 -0.38039,-0.62845 -0.66709,-1.29616 -0.88678,-1.50816 -2.4823,-8.19687 0.595,-4.96917 1.80399,3.78988 2.39151,8.41523 5.19271,11.77454 2.13494,3.50557 6.19074,3.73202 9.61009,4.60893 2.96896,1.44033 3.92398,5.7044 7.12188,6.55347 2.27683,2.96013 -0.57952,6.66545 -1.82114,9.52399 -2.49061,4.41198 2.61973,7.0903 4.23717,10.55016 3.27299,4.51773 6.37709,10.50031 3.91255,16.18538 -1.45643,4.11293 -1.81002,8.65684 -2.84877,12.94469 -0.46214,3.04167 -1.11811,9.43237 2.16361,10.02809 0.65784,-3.28941 0.39763,-6.82947 3.04707,-9.30792 2.60622,-4.95868 7.68363,-8.05177 11.53926,-11.55838 1.77834,-2.11302 5.22439,-6.90882 8.63648,-9.25401 1.51314,-2.56093 1.06056,-6.91298 3.84046,-9.452 2.12965,-2.25263 3.18772,-7.48169 -0.90153,-8.10162 -5.45032,-2.17265 -9.93367,-6.29669 -13.55869,-10.96431 -3.92585,-2.11469 -6.39091,-2.69234 -10.57811,-4.03949 -0.25491,-0.0831 -0.60487,2.19924 -1.36814,2.19165 -1.04373,-0.0104 0.24078,-2.91951 -2.02701,-2.83308 -0.37987,1.25065 -2.54847,3.22854 -4.03887,3.65474 -0.57526,-0.93852 -2.61786,-2.90861 -2.47015,-4.50091 -0.0675,-3.20745 -4.16486,-3.28639 -2.59635,-6.3373 -0.93695,-2.68808 -4.70117,3.94641 -6.23832,-0.59427 -0.9088,-3.94455 -1.0669,-10.62766 -4.70595,-11.37826 -1.75372,-0.69451 -4.68756,-1.9435 -6.86946,-1.85448 z m 22.52134,11.08803 c 0.36034,0.11281 1.96968,-0.37779 3.74158,-0.34954 1.66989,0.027 4.45634,1.40127 4.96159,0.96303 -0.78727,-2.61028 -6.3396,-2.13038 -6.2352,-2.11822 -0.8389,0.70583 -3.06837,1.27932 -2.46797,1.50473 z m 18.2795,4.96232 c -0.13867,0.24493 -0.84388,0.30611 -0.84471,-0.19602 0.27714,-0.4853 0.81656,-0.0685 0.84471,0.19602 z m -3.35391,-0.96812 c -3.15302,-0.0976 -1.0803,-1.70334 -2.75435,-1.66698 -1.17348,0.0249 -0.84077,1.2573 -2.87505,1.06773 1.87027,0.88075 1.99627,0.66396 3.29917,1.35993 1.84897,-0.10938 2.98454,-0.0831 2.33023,-0.76068 z"
         id="path3765"
         inkscape:connector-curvature="0" />
    </g>
    <g
       inkscape:export-ydpi="90"
       inkscape:export-xdpi="90"
       inkscape:export-filename="/home/gustavo/Imágenes/lisol2017_afiche2.png"
       id="g3767"
       transform="matrix(1.0893428,0,0,1.0893428,-94.88628,196.51475)">
      <path
         id="path3769"
         d="m 594.2979,72.672043 c -1.35977,0.012 -2.71643,0.49513 -3.93987,1.56237 l -23.00521,26.424297 c -2.30364,2.45821 -2.87054,5.17242 -0.58872,8.28732 8.74004,9.99121 18.43135,17.27656 18.43135,17.27656 1.7265,1.19041 3.49496,0.8728 5.29844,-0.56608 l 11.61583,-12.02339 c 1.96583,-2.308 1.38853,-4.27668 -0.40758,-6.06831 l -12.45361,-11.932827 -1.20007,1.20007 10.64217,14.038627 -11.07239,11.54789 -16.12177,-16.55198 23.48072,-24.794017 27.42059,29.662247 -26.46958,26.65073 c -9.24558,-9.36137 -21.90212,-15.34002 -35.95698,-15.91798 l -1.65293,-47.278447 c 0,0 -16.34531,-4.69464 -17.45771,2.67187 -1.1125,7.3665 11.68376,4.77765 11.68376,4.77765 l 3.57758,39.828927 c -9.69127,0.28582 -18.74698,3.11505 -26.49223,7.87974 l -29.75281,-28.46217 c -2.89344,-3.215647 -9.58199,-3.418407 -12.45362,-0.0906 l -30.38681,32.40204 c -2.54972,2.60996 -3.05076,6.12489 -0.61136,8.92131 l 26.40166,23.00522 c 2.4583,2.30364 5.17241,2.87054 8.28731,0.58872 9.99132,-8.74004 17.27656,-18.43135 17.27656,-18.43135 1.19041,-1.7265 0.8727,-3.49496 -0.56607,-5.29844 l -12.0234,-11.61583 c -2.3081,-1.96583 -4.27657,-1.36588 -6.06831,0.43022 l -11.93282,12.43097 1.20007,1.22272 14.03862,-10.66483 11.5479,11.0724 -16.55199,16.12177 -24.79401,-23.48072 29.66224,-27.4206 27.03566,26.87717 c -5.5523,5.49997 -9.8947,12.21591 -12.63475,19.69935 -0.30113,0.82242 -0.59895,1.65003 -0.86043,2.49072 -1.32242,4.25169 -2.1109,8.7273 -2.33223,13.35933 l -47.7313,1.65293 c 0,0 -4.71728,16.34531 2.64923,17.4577 7.3665,1.11251 4.77765,-11.68375 4.77765,-11.68375 l 40.25914,-3.57758 c 0.21967,9.61797 2.94683,18.62678 7.58538,26.35637 l -28.59802,29.91132 c -3.21576,2.89333 -3.41842,9.55934 -0.0906,12.43097 l 32.40203,30.38681 c 2.60997,2.54972 6.12501,3.0734 8.92132,0.634 l 23.00522,-26.4243 c 2.30363,-2.4583 2.87053,-5.17241 0.58871,-8.28731 -8.74004,-9.99132 -18.43134,-17.27656 -18.43134,-17.27656 -1.72651,-1.19041 -3.49487,-0.8727 -5.29845,0.56607 l -11.61582,12.0234 c -1.96574,2.3081 -1.36589,4.27657 0.43021,6.06831 l 12.43097,11.93282 1.22272,-1.20007 -10.66482,-14.01598 11.07239,-11.57054 16.12177,16.55199 -23.48072,24.79401 -27.42059,-29.66224 26.92244,-27.10359 c 9.09825,9.39027 21.59196,15.47596 35.50412,16.25762 l 1.65294,47.39166 c 0,0 16.3453,4.69464 17.4577,-2.67187 1.1125,-7.3665 -11.68376,-4.77766 -11.68376,-4.77766 l -3.55494,-39.8742 c 0.65094,-0.01 1.30217,-0.0126 1.9473,-0.0453 9.03081,-0.45777 17.48074,-3.16025 24.79401,-7.54009 l 29.50374,28.21309 c 2.89344,3.21576 9.55934,3.41842 12.43097,0.0906 l 30.38681,-32.40203 c 2.54972,-2.60997 3.07341,-6.1249 0.63401,-8.92132 l -26.42428,-23.00521 c -2.4582,-2.30364 -5.17241,-2.87054 -8.28731,-0.58871 -9.99121,8.74004 -17.27656,18.43134 -17.27656,18.43134 -1.19041,1.72651 -0.85015,3.49487 0.58872,5.29845 l 12.00075,11.61582 c 2.308,1.96584 4.27668,1.36589 6.06831,-0.43021 l 11.93283,-12.43097 -1.20008,-1.20008 -14.01598,10.64218 -11.57053,-11.07239 16.55198,-16.12177 24.79401,23.48072 -29.66224,27.42059 -26.69602,-26.51487 c 9.49634,-9.18098 15.60679,-21.83246 16.30291,-35.91169 l 46.9388,-1.65294 c 0,0 4.69464,-16.3453 -2.67186,-17.4577 -7.36651,-1.1125 -4.77766,11.68375 -4.77766,11.68375 l -39.44399,3.5323 c -0.0114,-0.52132 -0.0191,-1.04481 -0.0453,-1.56236 -0.46833,-9.23913 -3.27407,-17.86377 -7.83445,-25.29216 L 631.5908,117.6862 c 3.21566,-2.89344 3.44106,-9.55935 0.11322,-12.43097 L 599.27934,74.868413 c -1.46804,-1.43422 -3.23316,-2.21173 -4.98145,-2.19637 z m -55.61104,18.70307 c -2.2469,-0.0147 -4.12268,0.85393 -4.89087,2.49072 -1.2291,2.61886 0.87497,6.215847 4.70973,8.015597 3.83476,1.79976 7.94128,1.12443 9.17039,-1.49443 1.2291,-2.618857 -0.89761,-6.193207 -4.73238,-7.992957 -1.43803,-0.67491 -2.90873,-1.01012 -4.25687,-1.01893 z m 5.59281,14.242407 c -2.24691,-0.0147 -4.14533,0.87657 -4.91352,2.51336 -1.2291,2.61887 0.89761,6.1932 4.73237,7.99296 3.83477,1.79975 7.91865,1.12443 9.14775,-1.49444 1.2291,-2.61886 -0.87497,-6.1932 -4.70973,-7.99295 -1.43803,-0.67491 -2.90873,-1.01012 -4.25687,-1.01893 z m 92.76809,45.64815 c -2.34286,-0.0268 -4.96829,1.95627 -6.43059,5.07202 -1.79976,3.83476 -1.14707,7.94128 1.47179,9.17038 2.61886,1.22911 6.1932,-0.89761 7.99295,-4.73237 1.79976,-3.83476 1.14708,-7.94129 -1.47179,-9.17039 -0.49103,-0.23046 -1.0217,-0.33345 -1.56236,-0.33964 z m -14.2424,5.5928 c -2.34286,-0.0268 -4.99094,1.93363 -6.45324,5.04938 -1.79975,3.83476 -1.12443,7.94128 1.49443,9.17038 2.61887,1.22911 6.19321,-0.87496 7.99296,-4.70973 1.79975,-3.83476 1.14707,-7.94128 -1.47179,-9.17038 -0.49104,-0.23046 -1.0217,-0.33346 -1.56236,-0.33965 z M 495.25772,178.8674 c -2.34286,-0.0268 -4.99094,1.95627 -6.45324,5.07202 -1.79975,3.83476 -1.12443,7.94129 1.49444,9.17039 2.61886,1.2291 6.1932,-0.87497 7.99295,-4.70973 1.79976,-3.83477 1.14707,-7.94129 -1.47179,-9.17039 -0.49104,-0.23046 -1.0217,-0.3561 -1.56236,-0.36229 z m -14.26505,5.59281 c -2.34286,-0.0268 -4.96829,1.95627 -6.43059,5.07201 -1.79976,3.83477 -1.14708,7.94129 1.47179,9.17039 2.61886,1.2291 6.21584,-0.89761 8.0156,-4.73237 1.79975,-3.83476 1.12443,-7.94129 -1.49444,-9.17039 -0.49103,-0.23046 -1.0217,-0.33345 -1.56236,-0.33964 z m 85.29593,48.70495 c -2.24691,-0.0147 -4.12269,0.87657 -4.89088,2.51336 -1.2291,2.61886 0.87497,6.1932 4.70973,7.99296 3.83477,1.79975 7.94129,1.12443 9.17039,-1.49444 1.2291,-2.61886 -0.87496,-6.1932 -4.70973,-7.99295 -1.43803,-0.67491 -2.93137,-1.01012 -4.27951,-1.01893 z m 5.5928,14.26504 c -2.2469,-0.0147 -4.14533,0.85394 -4.91351,2.49073 -1.22911,2.61886 0.8976,6.1932 4.73237,7.99295 3.83476,1.79976 7.94128,1.14707 9.17039,-1.47179 1.2291,-2.61886 -0.89761,-6.1932 -4.73238,-7.99295 -1.43803,-0.67491 -2.90873,-1.01013 -4.25687,-1.01894 z"
         style="color:#000000;fill:none;stroke:#ffffff;stroke-width:3.62299991;stroke-linecap:round;stroke-linejoin:round;stroke-miterlimit:4;stroke-opacity:1;stroke-dasharray:none;marker:none;visibility:visible;display:inline;overflow:visible;enable-background:accumulate"
         inkscape:connector-curvature="0" />
      <path
         style="opacity:0.56734691;color:#000000;fill:#ffffff;fill-opacity:1;fill-rule:nonzero;stroke:none;stroke-width:1px;marker:none;visibility:visible;display:inline;overflow:visible;filter:url(#filter14506-80-6-8);enable-background:accumulate"
         d="m -1412.5395,-1158.7811 -32.5646,33.7015 c 0,0 -0.7309,1.2993 -0.8121,2.9235 -0.081,1.6242 0.3248,3.0859 0.3248,3.0859 0,0 0.8121,-4.2228 2.2739,-5.847 1.4617,-1.6241 31.9149,-32.3209 31.9149,-32.3209 z"
         id="path3771"
         inkscape:connector-curvature="0"
         transform="matrix(0.91980194,0,0,0.91980194,1811.8097,1269.6303)" />
      <path
         style="opacity:0.56734691;color:#000000;fill:#ffffff;fill-opacity:1;fill-rule:nonzero;stroke:none;stroke-width:1px;marker:none;visibility:visible;display:inline;overflow:visible;filter:url(#filter14506-80-6-66);enable-background:accumulate"
         d="m -1310.3633,-1159.0501 19.5178,-19.7407 c 1.7149,-1.5693 3.5719,-1.7264 5.7995,-0.3346 l 30.2246,26.5441 c 0,0 -26.0853,-21.6601 -31.3597,-25.6338 -0.4902,-0.3692 -1.85,-0.4434 -2.8022,0.032 -0.9523,0.4758 -21.38,19.1325 -21.38,19.1325 z"
         id="path3773"
         inkscape:connector-curvature="0"
         sodipodi:nodetypes="ccccszc"
         transform="matrix(0.91980194,0,0,0.91980194,1811.8097,1269.6303)" />
      <path
         style="opacity:0.56734691;color:#000000;fill:#ffffff;fill-opacity:1;fill-rule:nonzero;stroke:none;stroke-width:1px;marker:none;visibility:visible;display:inline;overflow:visible;filter:url(#filter14506-80-6-67);enable-background:accumulate"
         d="m -1307.575,-1156.0388 13.3836,12.1568 13.0489,-9.8146 c 0,0 -12.4913,11.4875 -13.0489,11.376 -0.5577,-0.1115 -13.3836,-13.7182 -13.3836,-13.7182 z"
         id="path3775"
         inkscape:connector-curvature="0"
         transform="matrix(0.91980194,0,0,0.91980194,1811.8097,1269.6303)" />
      <path
         style="opacity:0.56734691;color:#000000;fill:#ffffff;fill-opacity:1;fill-rule:nonzero;stroke:none;stroke-width:1px;marker:none;visibility:visible;display:inline;overflow:visible;filter:url(#filter14506-80-6-2);enable-background:accumulate"
         d="m -1412.9456,-1121.9125 14.0491,-13.8054 c 0,0 0.9745,-0.7309 1.949,-0.7309 0.9745,0 2.1114,0.4061 2.1114,0.4061 l 19.0028,18.0282 c 0,0 1.2181,1.6242 1.4617,2.3551 0.2437,0.7309 -20.4645,-19.0028 -21.2766,-19.3276 -0.8121,-0.3249 -2.0302,-0.3249 -2.9235,0.3248 -0.8933,0.6497 -14.3739,12.7497 -14.3739,12.7497 z"
         id="path3777"
         inkscape:connector-curvature="0"
         transform="matrix(0.91980194,0,0,0.91980194,1811.8097,1269.6303)" />
      <path
         style="opacity:0.56734691;color:#000000;fill:#ffffff;fill-opacity:1;fill-rule:nonzero;stroke:none;stroke-width:1px;marker:none;visibility:visible;display:inline;overflow:visible;filter:url(#filter14506-80-6-1);enable-background:accumulate"
         d="m -1409.7784,-1119.5574 11.6128,14.7799 c 0,0 -11.8565,-13.4806 -11.9377,-13.8054 -0.081,-0.3248 0.3249,-0.9745 0.3249,-0.9745 z"
         id="path3779"
         inkscape:connector-curvature="0"
         transform="matrix(0.91980194,0,0,0.91980194,1811.8097,1269.6303)" />
      <path
         style="opacity:0.56734691;color:#000000;fill:#ffffff;fill-opacity:1;fill-rule:nonzero;stroke:none;stroke-width:1px;marker:none;visibility:visible;display:inline;overflow:visible;filter:url(#filter14506-80-6-121);enable-background:accumulate"
         d="m -1449.2,-1225.014 13.0012,-13.0879 c 0,0 1.2134,-0.8667 2.1669,-0.8667 0.9534,0 2.5135,0.9534 2.5135,0.9534 0,0 13.5213,12.8278 13.7813,13.7812 0.26,0.9535 0.26,2.1669 0.26,2.1669 0,0 -0.6067,-2.1669 -3.467,-4.6804 -2.8602,-2.5136 -11.6144,-10.661 -11.6144,-10.661 0,0 -0.8667,-0.52 -1.7335,-0.3467 -0.8667,0.1733 -14.908,12.7412 -14.908,12.7412 z"
         id="path3781"
         inkscape:connector-curvature="0"
         transform="matrix(0.91980194,0,0,0.91980194,1811.8097,1269.6303)" />
      <path
         style="opacity:0.56734691;color:#000000;fill:#ffffff;fill-opacity:1;fill-rule:nonzero;stroke:none;stroke-width:1px;marker:none;visibility:visible;display:inline;overflow:visible;filter:url(#filter14506-80-6-82);enable-background:accumulate"
         d="m -1466.9683,-1231.5146 c 0,0 -0.6067,0.78 -0.26,1.0401 0.3467,0.26 27.5625,26.3491 27.5625,26.3491 l 1.6468,-0.9535 c 0,0 -0.7801,1.4735 -1.3868,1.5602 -0.6067,0.087 -0.6934,0 -6.1539,-4.7671 -5.4605,-4.7671 -22.9688,-21.322 -22.6221,-22.1021 0.3467,-0.78 1.2135,-1.1267 1.2135,-1.1267 z"
         id="path3783"
         inkscape:connector-curvature="0"
         transform="matrix(0.91980194,0,0,0.91980194,1811.8097,1269.6303)" />
      <path
         style="font-size:medium;font-style:normal;font-variant:normal;font-weight:normal;font-stretch:normal;text-indent:0;text-align:start;text-decoration:none;line-height:normal;letter-spacing:normal;word-spacing:normal;text-transform:none;direction:ltr;block-progression:tb;writing-mode:lr-tb;text-anchor:start;baseline-shift:baseline;color:#000000;fill:none;stroke:#ffffff;stroke-width:3.62299991;stroke-miterlimit:4;stroke-dasharray:none;marker:none;visibility:visible;display:inline;overflow:visible;enable-background:accumulate;font-family:Sans;-inkscape-font-specification:Sans"
         d="m 292.82054,119.15271 a 7.3591514,7.3591514 0 0 0 -7.27124,7.46602 l 0,97.18801 a 7.36863,7.36863 0 0 0 14.73726,0 l 0,-97.18801 a 7.3591514,7.3591514 0 0 0 -7.46602,-7.46602 z m -52.13224,0.35702 a 7.3591514,7.3591514 0 0 0 -7.27125,7.46612 l 0,75.86113 c 0,15.55247 12.75335,28.30592 28.30593,28.30592 l 13.11421,0 a 7.3591514,7.3591514 0 1 0 0,-14.70474 l -13.11421,0 c -7.65392,0 -13.60108,-5.94726 -13.60108,-13.60118 l 0,-75.86113 a 7.3591514,7.3591514 0 0 0 -7.4336,-7.46612 z m 193.82423,0 a 7.3591514,7.3591514 0 0 0 -7.23883,7.46612 l 0,75.86113 c 0,15.55247 12.72094,28.30592 28.27351,28.30592 l 13.11422,0 a 7.3591514,7.3591514 0 1 0 0,-14.70474 l -13.11422,0 c -7.65402,0 -13.56866,-5.94726 -13.56866,-13.60118 l 0,-75.86113 a 7.3591514,7.3591514 0 0 0 -7.46602,-7.46612 z m -224.92178,0.12984 c -15.55248,0 -28.30592,12.72095 -28.30592,28.27352 l 0,17.59382 a 7.3591514,7.3591514 0 0 0 0,14.44517 l 0,43.85466 a 7.3591514,7.3591514 0 1 0 14.7048,0 l 0,-43.69241 23.04725,0 a 7.36863,7.36863 0 0 0 0,-14.73726 l -23.04725,0 0,-17.46398 c 0,-7.65413 5.94708,-13.56866 13.60112,-13.56866 l 13.08176,0 a 7.3591514,7.3591514 0 1 0 0,-14.70486 l -13.08176,0 z m 118.19026,0.90891 -0.35712,0.0322 c 0,0 -5.98185,0.62076 -11.94562,4.31736 -5.96367,3.6966 -12.30264,11.48327 -12.30264,22.94982 0,10.57624 3.54619,18.56266 8.53717,23.95616 4.99099,5.3934 10.77288,8.41678 15.35407,11.45866 5.20362,3.45529 10.06819,6.30022 13.14663,9.2189 3.07854,2.91889 4.54452,5.21733 4.54452,9.86812 0,9.62931 -7.25909,14.80218 -12.46499,14.80218 -9.08594,0 -18.01576,-0.58419 -18.01576,-0.58419 a 6.8632598,6.8632598 0 0 0 -0.8765,13.69841 c 0,0 9.235,0.5844 18.89226,0.5844 13.5375,0 26.16351,-11.92475 26.16351,-28.5008 0,-8.45179 -3.96315,-15.25061 -8.79686,-19.83357 -4.83382,-4.58307 -10.34439,-7.59025 -14.99695,-10.6797 -5.27508,-3.50266 -9.92494,-6.14774 -12.88704,-9.34875 -2.96199,-3.2009 -4.90155,-6.78604 -4.90155,-14.63982 0,-6.96367 2.72786,-9.36558 5.84297,-11.2964 2.98578,-1.85074 5.82718,-2.2704 6.07014,-2.30468 l 18.14571,0 a 6.8564328,6.8564328 0 1 0 0,-13.69861 l -18.76242,0 -0.38953,0 z m 54.69661,27.59189 c -11.50529,0 -20.96976,9.49677 -20.96976,21.00217 l 0,40.99809 c 0,11.5054 9.46447,21.00227 20.96976,21.00227 l 19.37922,0 c 11.5053,0 21.00217,-9.49676 21.00217,-21.00227 l 0,-40.99809 c 0,-11.5054 -9.49687,-21.00217 -21.00217,-21.00217 l -19.37922,0 z m 0,14.70475 19.37922,0 c 3.60675,0 6.26491,2.69057 6.26491,6.29742 l 0,40.99809 c 0,3.60685 -2.65816,6.29753 -6.26491,6.29753 l -19.37922,0 c -3.60675,0 -6.26491,-2.69068 -6.26491,-6.29753 l 0,-40.99809 c 0,-3.60685 2.65816,-6.29742 6.26491,-6.29742 z"
         id="path3785"
         inkscape:connector-curvature="0" />
      <path
         inkscape:connector-curvature="0"
         id="path3787"
         d="m 531.77533,136.90463 c -0.72733,0.0301 -1.36865,0.21108 -1.85707,0.61214 -0.27049,2.61713 0.65202,5.97582 2.65037,7.81358 -0.17244,-0.22344 -0.38039,-0.62845 -0.66709,-1.29616 -0.88678,-1.50816 -2.4823,-8.19687 0.595,-4.96917 1.80399,3.78988 2.39151,8.41523 5.19271,11.77454 2.13494,3.50557 6.19074,3.73202 9.61009,4.60893 2.96896,1.44033 3.92398,5.7044 7.12188,6.55347 2.27683,2.96013 -0.57952,6.66545 -1.82114,9.52399 -2.49061,4.41198 2.61973,7.0903 4.23717,10.55016 3.27299,4.51773 6.37709,10.50031 3.91255,16.18538 -1.45643,4.11293 -1.81002,8.65684 -2.84877,12.94469 -0.46214,3.04167 -1.11811,9.43237 2.16361,10.02809 0.65784,-3.28941 0.39763,-6.82947 3.04707,-9.30792 2.60622,-4.95868 7.68363,-8.05177 11.53926,-11.55838 1.77834,-2.11302 5.22439,-6.90882 8.63648,-9.25401 1.51314,-2.56093 1.06056,-6.91298 3.84046,-9.452 2.12965,-2.25263 3.18772,-7.48169 -0.90153,-8.10162 -5.45032,-2.17265 -9.93367,-6.29669 -13.55869,-10.96431 -3.92585,-2.11469 -6.39091,-2.69234 -10.57811,-4.03949 -0.25491,-0.0831 -0.60487,2.19924 -1.36814,2.19165 -1.04373,-0.0104 0.24078,-2.91951 -2.02701,-2.83308 -0.37987,1.25065 -2.54847,3.22854 -4.03887,3.65474 -0.57526,-0.93852 -2.61786,-2.90861 -2.47015,-4.50091 -0.0675,-3.20745 -4.16486,-3.28639 -2.59635,-6.3373 -0.93695,-2.68808 -4.70117,3.94641 -6.23832,-0.59427 -0.9088,-3.94455 -1.0669,-10.62766 -4.70595,-11.37826 -1.75372,-0.69451 -4.68756,-1.9435 -6.86946,-1.85448 z m 22.52134,11.08803 c 0.36034,0.11281 1.96968,-0.37779 3.74158,-0.34954 1.66989,0.027 4.45634,1.40127 4.96159,0.96303 -0.78727,-2.61028 -6.3396,-2.13038 -6.2352,-2.11822 -0.8389,0.70583 -3.06837,1.27932 -2.46797,1.50473 z m 18.2795,4.96232 c -0.13867,0.24493 -0.84388,0.30611 -0.84471,-0.19602 0.27714,-0.4853 0.81656,-0.0685 0.84471,0.19602 z m -3.35391,-0.96812 c -3.15302,-0.0976 -1.0803,-1.70334 -2.75435,-1.66698 -1.17348,0.0249 -0.84077,1.2573 -2.87505,1.06773 1.87027,0.88075 1.99627,0.66396 3.29917,1.35993 1.84897,-0.10938 2.98454,-0.0831 2.33023,-0.76068 z"
         style="font-size:12px;fill:none;stroke:#ffffff;stroke-width:3.62299991;stroke-miterlimit:4;stroke-opacity:1;stroke-dasharray:none"
         sodipodi:nodetypes="cccccccccccccccccccssccccccccscccccccsccc" />
    </g>
    <text
       xml:space="preserve"
       style="font-size:108.86047363px;font-style:normal;font-weight:normal;line-height:125%;letter-spacing:0px;word-spacing:0px;fill:#ffffff;fill-opacity:1;stroke:none;font-family:Sans"
       x="107.1443"
       y="454.68149"
       id="text3789"
       sodipodi:linespacing="125%"
       transform="scale(0.9128082,1.0955204)"
       inkscape:export-filename="/home/gustavo/Imágenes/lisol2017_afiche2.png"
       inkscape:export-xdpi="90"
       inkscape:export-ydpi="90"><tspan
         sodipodi:role="line"
         id="tspan3791"
         x="107.1443"
         y="454.68149"
         style="font-style:normal;font-variant:normal;font-weight:normal;font-stretch:normal;fill:#ffffff;font-family:Southern Aire Personal Use Only;-inkscape-font-specification:Southern Aire Personal Use Only">Cumaná</tspan></text>
  </g>
</svg>
